<?xml version="1.0" standalone="no"?>
<!DOCTYPE svg PUBLIC "-//W3C//DTD SVG 20010904//EN"
 "http://www.w3.org/TR/2001/REC-SVG-20010904/DTD/svg10.dtd">
<svg version="1.0" xmlns="http://www.w3.org/2000/svg"
 width="721.000000pt" height="721.000000pt" viewBox="0 0 721.000000 721.000000"
 preserveAspectRatio="xMidYMid meet">
<metadata>
Created by potrace 1.11, written by Peter Selinger 2001-2013
</metadata>
<g transform="translate(0.000000,721.000000) scale(0.100000,-0.100000)"
fill="#000000" stroke="none">
<path d="M3385 6964 c-470 -38 -869 -146 -1270 -344 -266 -132 -441 -246 -669
-436 -792 -663 -1234 -1644 -1203 -2674 15 -493 120 -930 326 -1355 171 -354
351 -612 621 -889 294 -301 567 -501 935 -681 348 -171 678 -270 1073 -322
189 -24 631 -24 817 0 550 73 1034 256 1480 558 298 202 586 478 809 776 869
1159 887 2777 46 3953 -557 779 -1387 1274 -2340 1395 -119 15 -519 27 -625
19z m2000 -1109 c113 -24 208 -77 300 -170 59 -58 91 -100 118 -155 88 -176
88 -382 0 -560 -35 -71 -68 -106 -594 -635 l-558 -560 -69 -190 c-308 -844
-645 -1488 -930 -1779 -224 -228 -517 -386 -822 -442 -132 -24 -374 -25 -495
-1 -249 50 -460 161 -630 332 -183 182 -285 373 -341 636 -25 118 -25 378 0
509 33 167 108 362 193 500 209 337 490 556 1085 845 327 158 608 276 983 412
l150 54 560 558 c529 526 564 559 635 594 128 64 272 82 415 52z"/>
<path d="M3760 4208 c-761 -284 -1348 -576 -1615 -805 -158 -135 -306 -367
-355 -558 -59 -230 -41 -464 47 -639 l25 -49 1011 1011 1011 1011 -24 26 c-28
30 -29 30 -100 3z"/>
<path d="M3165 2870 l-1009 -1009 64 -30 c207 -96 474 -100 720 -10 132 49
288 148 398 253 207 197 478 694 750 1379 49 122 101 257 117 300 l28 78 -23
24 c-13 14 -26 25 -29 25 -3 0 -460 -454 -1016 -1010z"/>
</g>
</svg>
